<?xml version="1.0" encoding="UTF-8" standalone="no"?><!DOCTYPE svg PUBLIC "-//W3C//DTD SVG 1.1//EN" "http://www.w3.org/Graphics/SVG/1.1/DTD/svg11.dtd"><svg width="100%" height="100%" viewBox="0 0 4167 4167" version="1.1" xmlns="http://www.w3.org/2000/svg" xmlns:xlink="http://www.w3.org/1999/xlink" xml:space="preserve" xmlns:serif="http://www.serif.com/" style="fill-rule:evenodd;clip-rule:evenodd;stroke-linejoin:round;stroke-miterlimit:2;"><g><path d="M2884.137,1059.179c0,-248.875 -201.821,-450.558 -450.762,-450.558l-901.579,0c-248.929,0 -450.763,201.754 -450.763,450.558l450.763,0c-248.929,0 -450.763,201.692 -450.763,450.554l0,450.558l1803.092,-0.067l0,-450.558l-450.758,0c248.95,0.067 450.771,-201.696 450.771,-450.488Z" style="fill:#323234;fill-rule:nonzero;"/><path d="M2884.137,2861.404c0,-248.871 -201.821,-450.558 -450.762,-450.558l450.762,0c0,-248.8 -201.821,-450.554 -450.762,-450.554l-901.579,0c-248.996,0 -450.763,201.754 -450.763,450.554l0,450.629c0,248.871 201.821,450.554 450.763,450.554l901.579,0c248.942,-0.067 450.762,-201.821 450.762,-450.625Z" style="fill:#323234;fill-rule:nonzero;"/></g></svg>